<?xml version="1.0" standalone="no"?>
<!DOCTYPE svg PUBLIC "-//W3C//DTD SVG 20010904//EN"
 "http://www.w3.org/TR/2001/REC-SVG-20010904/DTD/svg10.dtd">
<svg version="1.0" xmlns="http://www.w3.org/2000/svg"
 width="512.000000pt" height="512.000000pt" viewBox="0 0 512.000000 512.000000"
 preserveAspectRatio="xMidYMid meet">

<g transform="translate(0.000000,512.000000) scale(0.100000,-0.100000)"
fill="#000000" stroke="none">
<path d="M1050 3498 c-56 -29 -81 -64 -87 -121 -4 -35 -1 -54 15 -81 17 -29
1127 -1314 1355 -1569 89 -99 129 -121 222 -122 131 0 84 -47 867 853 385 443
710 820 721 839 15 26 18 45 14 80 -6 57 -31 92 -87 121 l-44 22 -1466 0
-1466 0 -44 -22z"/>
</g>
</svg>
