<svg xmlns="http://www.w3.org/2000/svg" width="current" height="current" version="1.0" viewBox="0 0 512 512">
<g fill="currentColor">
<path d="M457.6 1.5c-2.2.7-6.4 3.8-9.5 6.8l-5.6 5.5-3.9-2.9c-4.4-3.3-7.3-3.6-11.6-1.4-5.6 2.9-6.8 10.2-2.5 15.3 3 3.6 3.1 4 .4 6.9l-2.2 2.2-3.4-2.9c-4.8-4.2-10.4-4.2-14.4.1s-4 9.2.1 14l2.9 3.6-2.5 2.4c-4.1 3.8-6.4 9.2-6.4 15.1v5.3l-42.7 42.7-42.8 42.8-7.2-5.8c-15.7-12.4-32.2-21.2-47.9-25.3-9-2.3-24.8-2.8-32.9-1-18.6 4.2-35.6 16.4-43.7 31.2-2 3.6-5.5 11.7-7.8 18-12 31.9-16.6 35.7-52 42.5-27.5 5.2-42.4 9.7-56.9 17.2-11.5 5.9-21.9 13.2-31.2 22C-1.5 289-7.5 331.2 16.3 378.6c11.3 22.5 25.5 41.1 50 65.6 19.2 19.1 31.3 29.3 46.2 39.3 58.8 39 111.2 34.8 149.5-12 15.5-19 24.3-38.4 30.4-67.3 1.4-6.7 3.8-17.7 5.2-24.3 1.4-6.7 3.6-14.5 4.9-17.4 4.5-10.4 13.3-16.4 34.5-24 27.9-9.9 40.6-21.7 48.6-45 3.8-10.9 4-27.7.6-40.3-4.2-15.5-15.1-35.4-26.8-49.2l-4.6-5.3 42.9-42.9 42.8-42.8h5.3c5.9 0 11.3-2.3 15.1-6.4l2.4-2.5 3.6 2.9c4.9 4.1 10.1 4.1 14.2.1 4.1-4.1 4.1-9.7-.1-14.4l-2.9-3.4 2.2-2.2c2.9-2.7 3.3-2.6 6.9.4 5.1 4.3 12.4 3.1 15.3-2.5 2.2-4.3 1.9-7.2-1.4-11.6l-2.8-3.9 5.7-6.1c6.5-6.7 8.6-12.1 7.6-18.8-1-6.1-3.2-8.8-20.8-26.2C477.9 5.6 473.7 2 470.5 1.1c-5.2-1.4-8.1-1.3-12.9.4zm9.2 23.1c5 3.5 3.6 5.5-19 28.1-22.3 22.3-24.3 23.7-28.2 19.7-4-3.9-2.6-5.9 19.7-28.1 13.5-13.6 22-21.3 23.3-21.3 1.1 0 3 .7 4.2 1.6zm20.8 20.9c.9 1.4 1.4 3.4 1 4.7-.3 1.3-9.9 11.6-21.4 23-21.7 21.7-23.7 23.1-27.6 19.2-4-3.9-2.6-5.9 19.6-28.1 23-23 24.8-24.2 28.4-18.8zM256.7 154.2c9.9 3.2 21.2 9.5 31.5 17.5l6 4.6-32.9 32.9-32.8 32.8-6.8.5c-13.1.9-22.2 4.8-30.9 13.6-10.4 10.3-15.2 24.9-13.1 39 4.8 30.9 37.5 48.4 65.6 35.1 7.9-3.8 13.5-8.6 18.6-16.2 4.6-7 6.8-13.8 7.5-23.5l.5-6.9 32.9-32.9 32.9-32.9 7.3 9.9c13.1 17.7 18.5 31.8 17.8 46.8-.3 7.4-.9 10.1-3.4 15.5-5.6 11.9-11.6 16.5-29.4 22.8-21 7.4-30.6 12.8-39.9 22.7-6.3 6.8-11.6 16.6-14.5 26.7-.9 3.1-3.6 15.5-6.1 27.6-5.8 28.8-10.4 41.3-20.8 56.7-5.9 8.8-18.2 21.1-26.3 26.5-10.8 7.1-19.4 9.5-32.9 9.4-23.6-.3-47.3-10.6-75.5-33-11-8.7-40.7-38.4-49.4-49.4-22.4-28.2-32.7-51.9-33-75.5-.1-9.1.3-12.3 2.3-18.3 7.6-23.1 34.1-46.2 63.6-55.5 4.4-1.4 16.3-4.2 26.5-6.2 33.5-6.7 43.4-10.4 53.9-20.1 9.7-8.9 15.5-18.8 22.6-37.9 8.1-22.1 13.4-28.4 28.2-33.4 9-3.1 18.4-2.8 30 1.1z"/>
<path d="M98.8 328.8c-5.4 5.5-7.8 8.6-7.8 10.3 0 3.4 78.4 81.9 81.8 81.9 1.6 0 5-2.6 10.3-7.8 6.3-6.2 7.9-8.3 7.9-10.7 0-2.6-5.3-8.3-39.3-42.2-33.7-33.8-39.6-39.3-42.1-39.3-2.4 0-4.6 1.6-10.8 7.8z"/>
</g>
</svg>