<?xml version="1.0" standalone="no"?>
<!DOCTYPE svg PUBLIC "-//W3C//DTD SVG 20010904//EN"
 "http://www.w3.org/TR/2001/REC-SVG-20010904/DTD/svg10.dtd">
<svg version="1.0" xmlns="http://www.w3.org/2000/svg"
 width="current" height="current" viewBox="0 0 512.000000 512.000000"
 preserveAspectRatio="xMidYMid meet">

<g transform="translate(0.000000,512.000000) scale(0.100000,-0.100000)"
fill="currentColor" stroke="none">
<path d="M4576 5105 c-22 -7 -64 -38 -95 -68 l-56 -55 -39 29 c-44 33 -73 36
-116 14 -56 -29 -68 -102 -25 -153 30 -36 31 -40 4 -69 l-22 -22 -34 29 c-48
42 -104 42 -144 -1 -40 -43 -40 -92 1 -140 l29 -36 -25 -24 c-41 -38 -64 -92
-64 -151 l0 -53 -427 -427 -428 -428 -72 58 c-157 124 -322 212 -479 253 -90
23 -248 28 -329 10 -186 -42 -356 -164 -437 -312 -20 -36 -55 -117 -78 -180
-120 -319 -166 -357 -520 -425 -275 -52 -424 -97 -569 -172 -115 -59 -219
-132 -312 -220 -354 -332 -414 -754 -176 -1228 113 -225 255 -411 500 -656
192 -191 313 -293 462 -393 588 -390 1112 -348 1495 120 155 190 243 384 304
673 14 67 38 177 52 243 14 67 36 145 49 174 45 104 133 164 345 240 279 99
406 217 486 450 38 109 40 277 6 403 -42 155 -151 354 -268 492 l-46 53 429
429 428 428 53 0 c59 0 113 23 151 64 l24 25 36 -29 c49 -41 101 -41 142 -1
41 41 41 97 -1 144 l-29 34 22 22 c29 27 33 26 69 -4 51 -43 124 -31 153 25
22 43 19 72 -14 116 l-28 39 57 61 c65 67 86 121 76 188 -10 61 -32 88 -208
262 -129 128 -171 164 -203 173 -52 14 -81 13 -129 -4z m92 -231 c50 -35 36
-55 -190 -281 -223 -223 -243 -237 -282 -197 -40 39 -26 59 197 281 135 136
220 213 233 213 11 0 30 -7 42 -16z m208 -209 c9 -14 14 -34 10 -47 -3 -13
-99 -116 -214 -230 -217 -217 -237 -231 -276 -192 -40 39 -26 59 196 281 230
230 248 242 284 188z m-2309 -1087 c99 -32 212 -95 315 -175 l60 -46 -329
-329 -328 -328 -68 -5 c-131 -9 -222 -48 -309 -136 -104 -103 -152 -249 -131
-390 48 -309 375 -484 656 -351 79 38 135 86 186 162 46 70 68 138 75 235 l5
69 329 329 329 329 73 -99 c131 -177 185 -318 178 -468 -3 -74 -9 -101 -34
-155 -56 -119 -116 -165 -294 -228 -210 -74 -306 -128 -399 -227 -63 -68 -116
-166 -145 -267 -9 -31 -36 -155 -61 -276 -58 -288 -104 -413 -208 -567 -59
-88 -182 -211 -263 -265 -108 -71 -194 -95 -329 -94 -236 3 -473 106 -755 330
-110 87 -407 384 -494 494 -224 282 -327 519 -330 755 -1 91 3 123 23 183 76
231 341 462 636 555 44 14 163 42 265 62 335 67 434 104 539 201 97 89 155
188 226 379 81 221 134 284 282 334 90 31 184 28 300 -11z"/>
<path d="M988 1832 c-54 -55 -78 -86 -78 -103 0 -34 784 -819 818 -819 16 0
50 26 103 78 63 62 79 83 79 107 0 26 -53 83 -393 422 -337 338 -396 393 -421
393 -24 0 -46 -16 -108 -78z"/>
</g>
</svg>
