<svg xmlns="http://www.w3.org/2000/svg" width="current" height="current" fill="currentColor" viewBox="0 0 612 612">
<path d="M61.2 122.4h489.6c33.782 0 61.2-27.387 61.2-61.2S584.613 0 550.8 0H61.2C27.387 0 0 27.387 0 61.2s27.387 61.2 61.2 61.2zm489.6 122.4H61.2C27.387 244.8 0 272.187 0 306c0 33.812 27.387 61.2 61.2 61.2h489.6c33.782 0 61.2-27.388 61.2-61.2 0-33.813-27.387-61.2-61.2-61.2zm0 244.8H61.2C27.387 489.6 0 516.987 0 550.8S27.387 612 61.2 612h489.6c33.782 0 61.2-27.387 61.2-61.2s-27.387-61.2-61.2-61.2z"/>
</svg>