<svg xmlns="http://www.w3.org/2000/svg" width="current" height="current" fill="currentColor" viewBox="0 0 512 512">
<path d="M178.5 3.9C131.8 20 91.5 47.4 60.6 84c-49.8 59-70.2 136.6-56 213.6 12.9 70.4 54 131.8 115 172.1 55.9 36.8 127.7 50.5 193.9 37.1 76-15.4 140.7-64.1 177.7-133.8 9-17 20.8-46.8 20.8-52.7 0-3.7-2.8-8.9-5.8-10.9-4.7-3.1-9.7-2.3-22.7 3.7-42 19.4-84.1 24.4-129.5 15.3-66.4-13.3-124.4-58.6-153.6-119.9-14.2-29.9-20.7-59.1-20.8-92.5 0-32.9 5.5-57.7 19.6-88.2 2.7-5.9 5.1-12.2 5.4-14 1-6.4-5.9-13.9-12.6-13.7-1.4 0-7.4 1.8-13.5 3.8zm-13.4 40.2c-12.5 37.3-14.6 83.9-5.5 124.4C180.3 260.9 253.5 333.4 346 353c23.7 5 57 6.5 79.2 3.5 14-1.9 31.6-5.9 42.7-9.6 4.7-1.6 8.5-2.8 8.7-2.6.4.4-10.2 21.4-15 29.4-21.8 36.3-56.7 68.8-94.2 87.6C333.9 478.1 300.1 486 262 486c-53.2 0-100.5-16.2-144.5-49.3-10.3-7.8-34.4-31.9-42.2-42.2C52.2 363.9 36.7 329.8 30 295c-6.8-35.1-5-76.1 5-110.6C53 122 97.4 69.6 157 40.3c5.8-2.8 10.6-5 10.7-4.9.2.2-1 4-2.6 8.7z"/>
</svg>