<?xml version="1.0" standalone="no"?>
<!DOCTYPE svg PUBLIC "-//W3C//DTD SVG 20010904//EN"
 "http://www.w3.org/TR/2001/REC-SVG-20010904/DTD/svg10.dtd">
<svg version="1.0" xmlns="http://www.w3.org/2000/svg"
 width='current' height='current' fill="currentColor" viewBox="0 0 512.000000 512.000000"
 preserveAspectRatio="xMidYMid meet">

<g transform="translate(0.000000,512.000000) scale(0.100000,-0.100000)"
 stroke="none">
<path d="M1785 5081 c-467 -161 -870 -435 -1179 -801 -498 -590 -702 -1366
-560 -2136 129 -704 540 -1318 1150 -1721 559 -368 1277 -505 1939 -371 760
154 1407 641 1777 1338 90 170 208 468 208 527 0 37 -28 89 -58 109 -47 31
-97 23 -227 -37 -420 -194 -841 -244 -1295 -153 -664 133 -1244 586 -1536
1199 -142 299 -207 591 -208 925 0 329 55 577 196 882 27 59 51 122 54 140 10
64 -59 139 -126 137 -14 0 -74 -18 -135 -38z m-134 -402 c-125 -373 -146 -839
-55 -1244 207 -924 939 -1649 1864 -1845 237 -50 570 -65 792 -35 140 19 316
59 427 96 47 16 85 28 87 26 4 -4 -102 -214 -150 -294 -218 -363 -567 -688
-942 -876 -335 -168 -673 -247 -1054 -247 -532 0 -1005 162 -1445 493 -103 78
-344 319 -422 422 -231 306 -386 647 -453 995 -68 351 -50 761 50 1106 180
624 624 1148 1220 1441 58 28 106 50 107 49 2 -2 -10 -40 -26 -87z"/>
</g>
</svg>
