<svg xmlns="http://www.w3.org/2000/svg" xml:space="preserve" width="current" height="current" fill="currentColor" style="enable-background:new 0 0 100 100" viewBox="0 0 100 100">
<path d="M39.806 72.858h-8.915a3.94 3.94 0 0 1-3.94-3.94V31.119a3.94 3.94 0 0 1 3.94-3.94h8.915a3.94 3.94 0 0 1 3.94 3.94v37.799a3.94 3.94 0 0 1-3.94 3.94zM68.109 72.821h-8.915a3.94 3.94 0 0 1-3.94-3.94V31.082a3.94 3.94 0 0 1 3.94-3.94h8.915a3.94 3.94 0 0 1 3.94 3.94v37.799a3.94 3.94 0 0 1-3.94 3.94z"/>
<path d="M40.489 27.248a3.919 3.919 0 0 1 1.257 2.871v37.799a3.94 3.94 0 0 1-3.94 3.94h-8.915c-.234 0-.46-.03-.683-.069a3.916 3.916 0 0 0 2.683 1.069h8.915a3.94 3.94 0 0 0 3.94-3.94V31.119a3.934 3.934 0 0 0-3.257-3.871zM68.792 27.211a3.919 3.919 0 0 1 1.257 2.871v37.799a3.94 3.94 0 0 1-3.94 3.94h-8.915c-.234 0-.46-.03-.683-.069a3.916 3.916 0 0 0 2.683 1.069h8.915a3.94 3.94 0 0 0 3.94-3.94V31.082a3.933 3.933 0 0 0-3.257-3.871z"/>
<path d="M39.806 72.858h-8.915a3.94 3.94 0 0 1-3.94-3.94V31.119a3.94 3.94 0 0 1 3.94-3.94h8.915a3.94 3.94 0 0 1 3.94 3.94v37.799a3.94 3.94 0 0 1-3.94 3.94zM68.109 72.821h-8.915a3.94 3.94 0 0 1-3.94-3.94V31.082a3.94 3.94 0 0 1 3.94-3.94h8.915a3.94 3.94 0 0 1 3.94 3.94v37.799a3.94 3.94 0 0 1-3.94 3.94z" style="fill:none;stroke:#000;stroke-miterlimit:10"/>
</svg>