<svg xmlns="http://www.w3.org/2000/svg" xml:space="preserve" width="current" height="current" fill="currentColor" style="enable-background:new 0 0 100 100" viewBox="0 0 100 100">
<path d="m31.356 25.677 38.625 22.3c1.557.899 1.557 3.147 0 4.046l-38.625 22.3c-1.557.899-3.504-.225-3.504-2.023V27.7c0-1.798 1.946-2.922 3.504-2.023z"/>
<path d="m69.981 47.977-38.625-22.3a2.343 2.343 0 0 0-.716-.259l37.341 21.559c1.557.899 1.557 3.147 0 4.046l-38.625 22.3a2.296 2.296 0 0 1-1.078.301c.656.938 1.961 1.343 3.078.699l38.625-22.3c1.557-.899 1.557-3.147 0-4.046z"/>
<path d="m31.356 25.677 38.625 22.3c1.557.899 1.557 3.147 0 4.046l-38.625 22.3c-1.557.899-3.504-.225-3.504-2.023V27.7c0-1.798 1.946-2.922 3.504-2.023z" style="fill:none;stroke:#000;stroke-miterlimit:10"/>
</svg>