<?xml version="1.0" standalone="no"?>
<!DOCTYPE svg PUBLIC "-//W3C//DTD SVG 20010904//EN"
 "http://www.w3.org/TR/2001/REC-SVG-20010904/DTD/svg10.dtd">
<svg version="1.0" xmlns="http://www.w3.org/2000/svg"
 width='current' height='current' viewBox="0 0 512.000000 512.000000"
 preserveAspectRatio="xMidYMid meet">

<g transform="translate(0.000000,512.000000) scale(0.100000,-0.100000)"
fill="currentColor" stroke="none">
<path d="M3 5098 c3 -13 99 -538 213 -1168 114 -630 210 -1148 213 -1152 3 -3
929 -52 2056 -108 1128 -55 2068 -104 2090 -108 23 -4 -850 -51 -2050 -111
-1150 -57 -2093 -106 -2096 -110 -3 -3 -99 -521 -213 -1151 -114 -630 -210
-1155 -213 -1168 -5 -20 382 170 2551 1255 1406 703 2556 1280 2556 1283 0 3
-1150 580 -2556 1283 -2170 1085 -2556 1275 -2551 1255z"/>
</g>
</svg>
