<svg xmlns="http://www.w3.org/2000/svg" width="current" height="current" fill="currentColor" viewBox="0 0 612 612">
<path d="M76.5 286.875H19.125C8.568 286.875 0 295.443 0 306s8.568 19.125 19.125 19.125H76.5c10.557 0 19.125-8.568 19.125-19.125s-8.568-19.125-19.125-19.125zM306 95.625c10.557 0 19.125-8.568 19.125-19.125V19.125C325.125 8.568 316.557 0 306 0s-19.125 8.568-19.125 19.125V76.5c0 10.557 8.568 19.125 19.125 19.125zm184.002 53.167 40.182-40.182c7.401-7.401 7.401-19.393 0-26.794s-19.394-7.401-26.795 0l-40.182 40.182c-7.401 7.401-7.401 19.393 0 26.794 7.402 7.402 19.394 7.402 26.795 0zM141.716 443.509l-40.182 40.182c-7.401 7.401-7.401 19.393 0 26.794s19.393 7.401 26.794 0l40.182-40.182c7.401-7.401 7.401-19.393 0-26.794s-19.392-7.402-26.794 0zm-11.513-286.263c7.478 7.478 19.584 7.478 27.042 0 7.459-7.478 7.459-19.584 0-27.042L116.682 89.62c-7.478-7.478-19.584-7.478-27.043 0-7.478 7.478-7.478 19.584 0 27.043l40.564 40.583zM306 516.375c-10.557 0-19.125 8.568-19.125 19.125v57.375c0 10.557 8.568 19.125 19.125 19.125s19.125-8.568 19.125-19.125V535.5c0-10.557-8.568-19.125-19.125-19.125zm175.797-61.621c-7.478-7.478-19.584-7.478-27.043 0-7.478 7.479-7.478 19.584 0 27.043l40.564 40.564c7.478 7.478 19.584 7.478 27.043 0 7.459-7.479 7.478-19.584 0-27.043l-40.564-40.564zm111.078-167.879H535.5c-10.557 0-19.125 8.568-19.125 19.125s8.568 19.125 19.125 19.125h57.375c10.557 0 19.125-8.568 19.125-19.125s-8.568-19.125-19.125-19.125zM306 133.76c-95.128 0-172.24 77.112-172.24 172.24S210.872 478.24 306 478.24 478.24 401.128 478.24 306 401.128 133.76 306 133.76zm0 306.077c-73.918 0-133.837-59.919-133.837-133.837S232.082 172.163 306 172.163 439.837 232.082 439.837 306 379.918 439.837 306 439.837z"/>
</svg>