<svg xmlns="http://www.w3.org/2000/svg" width="current" height="current" fill="currentColor" viewBox="0 0 32 32">
<path d="M16 5c-3.854 0-7 3.146-7 7a7.026 7.026 0 0 0 3.094 5.813C8.527 19.343 6 22.88 6 27h2c0-4.43 3.57-8 8-8s8 3.57 8 8h2c0-4.119-2.527-7.658-6.094-9.188A7.026 7.026 0 0 0 23 12c0-3.854-3.146-7-7-7zm0 2c2.773 0 5 2.227 5 5s-2.227 5-5 5-5-2.227-5-5 2.227-5 5-5z" font-family="Bitstream Vera Sans" overflow="visible" style="text-indent:0;text-align:start;line-height:normal;text-transform:none;block-progression:tb;-inkscape-font-specification:Bitstream Vera Sans"/>
</svg>